<svg
  width="242"
  height="40"
  viewBox="0 0 242 40"
  fill="none"
  xmlns="http://www.w3.org/2000/svg"
>
  <path
    d="M229.906 1.56924H183.078V37.5692H240.357V12.0489C240.357 4.08436 233.39 1.74391 229.906 1.56924Z"
    fill="#FF4B4B"
    stroke="#252525"
    stroke-width="3.13846"
  />
  <path
    d="M211.445 1.56924H164.616V37.5692H221.896V12.0489C221.896 4.08436 214.928 1.74391 211.445 1.56924Z"
    fill="#FAFFA5"
    stroke="#252525"
    stroke-width="3.13846"
  />
  <path
    d="M192.983 1.56924H146.155V37.5692H203.434V12.0489C203.434 4.08436 196.467 1.74391 192.983 1.56924Z"
    fill="#CAFFBE"
    stroke="#252525"
    stroke-width="3.13846"
  />
  <path
    d="M1.56921 11.5249V37.5692H184.955V12.0489C184.955 4.08434 177.988 1.74389 174.504 1.56923H12.0202C3.65941 1.56923 1.56921 8.20633 1.56921 11.5249Z"
    fill="white"
    stroke="#252525"
    stroke-width="3.13846"
    stroke-linecap="square"
  />
  <path
    d="M183.078 1.56924C191.439 1.56924 159.536 1.56924 229.906 1.56924C233.39 1.74391 240.357 4.08436 240.357 12.0489C240.357 20.0134 240.357 35.9973 240.357 37.5692"
    stroke="#252525"
    stroke-width="3.13846"
  />
  <path
    d="M164.616 1.56924C172.977 1.56924 141.075 1.56924 211.445 1.56924C214.928 1.74391 221.896 4.08436 221.896 12.0489C221.896 20.0134 221.896 35.9973 221.896 37.5692"
    stroke="#252525"
    stroke-width="3.13846"
  />
  <path
    d="M25.5276 27.263C24.8522 27.263 24.2388 27.139 23.6874 26.8908C23.136 26.6289 22.6604 26.2567 22.2607 25.7743C21.8609 25.278 21.5508 24.6715 21.3302 23.9547C21.1234 23.2379 21.0201 22.4315 21.0201 21.5355C21.0201 20.3225 21.2062 19.2886 21.5783 18.434C21.9643 17.5655 22.495 16.9108 23.1705 16.4697C23.8459 16.0148 24.6316 15.7873 25.5276 15.7873C26.0928 15.7873 26.6028 15.8769 27.0577 16.0561C27.5126 16.2215 27.9055 16.4628 28.2363 16.7798C28.5671 17.0831 28.8084 17.4415 28.96 17.855H29.1254L29.2495 15.9941H32.1236V27.0769H29.2495L29.1254 25.1953H28.96C28.7394 25.8156 28.319 26.3188 27.6987 26.7047C27.0922 27.0769 26.3685 27.263 25.5276 27.263ZM26.6235 24.8025C27.1749 24.8025 27.6298 24.6853 27.9882 24.451C28.3604 24.2166 28.6361 23.8927 28.8153 23.4791C28.9945 23.0656 29.0841 22.5969 29.0841 22.0731V20.9772C29.0841 20.4396 28.9876 19.971 28.7946 19.5712C28.6154 19.1577 28.3397 18.8337 27.9675 18.5994C27.6091 18.365 27.1887 18.2479 26.7062 18.2479C26.1273 18.2479 25.6448 18.3788 25.2588 18.6407C24.8866 18.9026 24.6041 19.2817 24.4111 19.778C24.2181 20.2604 24.1216 20.8463 24.1216 21.5355C24.1216 22.1972 24.2112 22.7761 24.3904 23.2724C24.5696 23.7686 24.8453 24.1477 25.2175 24.4096C25.5897 24.6715 26.0583 24.8025 26.6235 24.8025ZM42.3533 27.2837C41.8019 27.2837 41.2919 27.201 40.8232 27.0356C40.3683 26.8564 39.9755 26.6082 39.6446 26.2912C39.3138 25.9742 39.0726 25.6158 38.9209 25.216H38.7555L38.6521 27.0769H35.7574V12.0034H38.7969V17.8757H38.9209C39.1553 17.2554 39.5757 16.7522 40.1822 16.3663C40.8025 15.9803 41.5262 15.7873 42.3533 15.7873C43.0425 15.7873 43.6629 15.9183 44.2142 16.1802C44.7656 16.4421 45.2412 16.8212 45.6409 17.3174C46.0407 17.7999 46.344 18.3995 46.5507 19.1163C46.7713 19.8193 46.8816 20.6257 46.8816 21.5355C46.8816 22.7348 46.6886 23.7686 46.3026 24.637C45.9304 25.4917 45.4066 26.1465 44.7312 26.6014C44.0557 27.0562 43.2631 27.2837 42.3533 27.2837ZM41.1954 24.8231C41.7606 24.8231 42.2361 24.6922 42.6221 24.4303C43.0081 24.1546 43.2907 23.7686 43.4699 23.2724C43.6629 22.7761 43.7593 22.1972 43.7593 21.5355C43.7593 21.0393 43.7111 20.5913 43.6146 20.1915C43.5181 19.778 43.3665 19.4334 43.1597 19.1577C42.9529 18.8682 42.691 18.6476 42.374 18.496C42.0569 18.3306 41.6848 18.2479 41.2574 18.2479C40.7198 18.2479 40.2649 18.3719 39.8928 18.6201C39.5206 18.8544 39.2449 19.1783 39.0657 19.5919C38.8865 20.0054 38.7969 20.4741 38.7969 20.9979V22.0938C38.7969 22.6314 38.8934 23.107 39.0864 23.5205C39.2793 23.9202 39.555 24.2373 39.9134 24.4716C40.2718 24.706 40.6992 24.8231 41.1954 24.8231ZM54.1886 27.263C53.5131 27.263 52.8997 27.139 52.3483 26.8908C51.797 26.6289 51.3214 26.2567 50.9216 25.7743C50.5219 25.278 50.2117 24.6715 49.9912 23.9547C49.7844 23.2379 49.681 22.4315 49.681 21.5355C49.681 20.3225 49.8671 19.2886 50.2393 18.434C50.6253 17.5655 51.156 16.9108 51.8314 16.4697C52.5069 16.0148 53.2926 15.7873 54.1886 15.7873C54.7538 15.7873 55.2638 15.8769 55.7187 16.0561C56.1736 16.2215 56.5664 16.4628 56.8973 16.7798C57.2281 17.0831 57.4693 17.4415 57.621 17.855H57.7864L57.9104 15.9941H60.7845V27.0769H57.9104L57.7864 25.1953H57.621C57.4004 25.8156 56.98 26.3188 56.3597 26.7047C55.7531 27.0769 55.0295 27.263 54.1886 27.263ZM55.2845 24.8025C55.8359 24.8025 56.2907 24.6853 56.6491 24.451C57.0213 24.2166 57.297 23.8927 57.4762 23.4791C57.6554 23.0656 57.745 22.5969 57.745 22.0731V20.9772C57.745 20.4396 57.6485 19.971 57.4555 19.5712C57.2763 19.1577 57.0007 18.8337 56.6285 18.5994C56.2701 18.365 55.8496 18.2479 55.3672 18.2479C54.7882 18.2479 54.3058 18.3788 53.9198 18.6407C53.5476 18.9026 53.265 19.2817 53.072 19.778C52.8791 20.2604 52.7826 20.8463 52.7826 21.5355C52.7826 22.1972 52.8722 22.7761 53.0514 23.2724C53.2306 23.7686 53.5063 24.1477 53.8784 24.4096C54.2506 24.6715 54.7193 24.8025 55.2845 24.8025ZM68.5951 27.2837C67.8507 27.2837 67.1822 27.201 66.5894 27.0356C65.9967 26.8564 65.4866 26.6082 65.0593 26.2912C64.6458 25.9742 64.3218 25.5951 64.0875 25.154C63.8532 24.6991 63.7291 24.2028 63.7153 23.6652H66.7135C66.7548 24.0098 66.8582 24.2924 67.0236 24.513C67.189 24.7198 67.4096 24.8783 67.6853 24.9886C67.9748 25.085 68.3056 25.1333 68.6778 25.1333C69.243 25.1333 69.6634 25.0299 69.9391 24.8231C70.2286 24.6164 70.3733 24.3338 70.3733 23.9754C70.3733 23.6859 70.3044 23.4654 70.1665 23.3137C70.0287 23.1483 69.8012 23.0242 69.4842 22.9415C69.1809 22.845 68.7674 22.7623 68.2436 22.6934C67.2924 22.5418 66.4998 22.3419 65.8657 22.0938C65.2316 21.8457 64.763 21.501 64.4597 21.0599C64.1564 20.6188 64.0048 20.0399 64.0048 19.3231C64.0048 18.6063 64.1978 17.986 64.5838 17.4622C64.9835 16.9383 65.5349 16.5317 66.2379 16.2422C66.9409 15.939 67.7611 15.7873 68.6985 15.7873C69.5945 15.7873 70.3733 15.9321 71.035 16.2215C71.7104 16.4972 72.2342 16.897 72.6064 17.4208C72.9924 17.9308 73.206 18.5305 73.2474 19.2197H70.2492C70.2492 18.9164 70.1734 18.6752 70.0218 18.496C69.8839 18.303 69.691 18.1583 69.4428 18.0618C69.2085 17.9653 68.9328 17.917 68.6158 17.917C68.1333 17.917 67.7473 18.0204 67.4578 18.2272C67.1822 18.4202 67.0443 18.6959 67.0443 19.0543C67.0443 19.3162 67.1201 19.5298 67.2718 19.6953C67.4372 19.8469 67.6991 19.971 68.0575 20.0674C68.4159 20.1639 68.8846 20.2535 69.4635 20.3362C70.3733 20.4603 71.1246 20.6464 71.7173 20.8945C72.31 21.1426 72.7511 21.4942 73.0406 21.949C73.3301 22.3902 73.4748 22.976 73.4748 23.7066C73.4748 24.4647 73.2681 25.1126 72.8545 25.6502C72.4548 26.1878 71.8896 26.5945 71.159 26.8702C70.4284 27.1458 69.5738 27.2837 68.5951 27.2837ZM85.8622 27.263C85.1868 27.263 84.5734 27.139 84.022 26.8908C83.4706 26.6289 82.995 26.2567 82.5953 25.7743C82.1955 25.278 81.8854 24.6715 81.6648 23.9547C81.4581 23.2379 81.3547 22.4315 81.3547 21.5355C81.3547 20.3225 81.5408 19.2886 81.913 18.434C82.2989 17.5655 82.8296 16.9108 83.5051 16.4697C84.1805 16.0148 84.9662 15.7873 85.8622 15.7873C86.4274 15.7873 86.9374 15.8769 87.3923 16.0561C87.8472 16.2215 88.2401 16.4628 88.5709 16.7798C88.9018 17.0831 89.143 17.4415 89.2946 17.855H89.46L89.5841 15.9941H92.4582V27.0769H89.5841L89.46 25.1953H89.2946C89.0741 25.8156 88.6536 26.3188 88.0333 26.7047C87.4268 27.0769 86.7031 27.263 85.8622 27.263ZM86.9581 24.8025C87.5095 24.8025 87.9644 24.6853 88.3228 24.451C88.695 24.2166 88.9707 23.8927 89.1499 23.4791C89.3291 23.0656 89.4187 22.5969 89.4187 22.0731V20.9772C89.4187 20.4396 89.3222 19.971 89.1292 19.5712C88.95 19.1577 88.6743 18.8337 88.3021 18.5994C87.9437 18.365 87.5233 18.2479 87.0408 18.2479C86.4619 18.2479 85.9794 18.3788 85.5934 18.6407C85.2213 18.9026 84.9387 19.2817 84.7457 19.778C84.5527 20.2604 84.4562 20.8463 84.4562 21.5355C84.4562 22.1972 84.5458 22.7761 84.725 23.2724C84.9042 23.7686 85.1799 24.1477 85.5521 24.4096C85.9243 24.6715 86.393 24.8025 86.9581 24.8025ZM102.688 27.2837C102.137 27.2837 101.627 27.201 101.158 27.0356C100.703 26.8564 100.31 26.6082 99.9793 26.2912C99.6484 25.9742 99.4072 25.6158 99.2556 25.216H99.0901L98.9868 27.0769H96.092V12.0034H99.1315V17.8757H99.2556C99.4899 17.2554 99.9103 16.7522 100.517 16.3663C101.137 15.9803 101.861 15.7873 102.688 15.7873C103.377 15.7873 103.997 15.9183 104.549 16.1802C105.1 16.4421 105.576 16.8212 105.976 17.3174C106.375 17.7999 106.679 18.3995 106.885 19.1163C107.106 19.8193 107.216 20.6257 107.216 21.5355C107.216 22.7348 107.023 23.7686 106.637 24.637C106.265 25.4917 105.741 26.1465 105.066 26.6014C104.39 27.0562 103.598 27.2837 102.688 27.2837ZM101.53 24.8231C102.095 24.8231 102.571 24.6922 102.957 24.4303C103.343 24.1546 103.625 23.7686 103.804 23.2724C103.997 22.7761 104.094 22.1972 104.094 21.5355C104.094 21.0393 104.046 20.5913 103.949 20.1915C103.853 19.778 103.701 19.4334 103.494 19.1577C103.288 18.8682 103.026 18.6476 102.709 18.496C102.392 18.3306 102.019 18.2479 101.592 18.2479C101.054 18.2479 100.6 18.3719 100.227 18.6201C99.8552 18.8544 99.5795 19.1783 99.4003 19.5919C99.2211 20.0054 99.1315 20.4741 99.1315 20.9979V22.0938C99.1315 22.6314 99.228 23.107 99.421 23.5205C99.614 23.9202 99.8897 24.2373 100.248 24.4716C100.606 24.706 101.034 24.8231 101.53 24.8231ZM115.411 27.2837C114.253 27.2837 113.267 27.0494 112.454 26.5807C111.655 26.112 111.041 25.4503 110.614 24.5957C110.186 23.741 109.973 22.7486 109.973 21.6182C109.973 20.419 110.186 19.3851 110.614 18.5167C111.055 17.6482 111.668 16.9797 112.454 16.511C113.254 16.0286 114.198 15.7873 115.287 15.7873C116.555 15.7873 117.589 16.063 118.388 16.6144C119.202 17.1658 119.787 17.9239 120.146 18.8889C120.504 19.8538 120.621 20.9566 120.497 22.1972H112.95C112.95 22.8037 113.047 23.3206 113.24 23.7479C113.447 24.1615 113.736 24.4716 114.108 24.6784C114.48 24.8852 114.915 24.9886 115.411 24.9886C115.99 24.9886 116.458 24.8714 116.817 24.637C117.175 24.4027 117.417 24.0926 117.541 23.7066H120.415C120.304 24.4372 120.022 25.0713 119.567 25.6089C119.112 26.1327 118.526 26.5462 117.809 26.8495C117.106 27.139 116.307 27.2837 115.411 27.2837ZM112.95 20.605L112.682 20.3156H117.809L117.52 20.605C117.547 20.0261 117.465 19.5574 117.272 19.199C117.093 18.8268 116.831 18.5442 116.486 18.3513C116.155 18.1583 115.755 18.0618 115.287 18.0618C114.818 18.0618 114.405 18.1652 114.046 18.3719C113.702 18.5649 113.433 18.8544 113.24 19.2404C113.061 19.6126 112.964 20.0674 112.95 20.605ZM123.481 27.0769V15.9941H126.231L126.355 17.7723H126.458C126.706 17.0555 127.099 16.5593 127.637 16.2836C128.188 15.9941 128.815 15.8494 129.518 15.8494C129.643 15.8494 129.753 15.8494 129.849 15.8494C129.946 15.8494 130.042 15.8494 130.139 15.8494V18.7028C130.07 18.7028 129.973 18.7028 129.849 18.7028C129.725 18.7028 129.594 18.7028 129.456 18.7028C128.781 18.7028 128.23 18.8062 127.802 19.0129C127.375 19.2059 127.058 19.4954 126.851 19.8814C126.644 20.2673 126.534 20.736 126.52 21.2874V27.0769H123.481ZM137.003 27.0769C136.052 27.0769 135.349 26.8564 134.894 26.4153C134.439 25.9604 134.212 25.2436 134.212 24.2649V18.434H132.227V15.9941H134.212V12.9753L137.251 12.6858V15.9941H139.484V18.434H137.251V23.7066C137.251 24.0512 137.334 24.2855 137.499 24.4096C137.665 24.5337 137.899 24.5957 138.202 24.5957H139.484V27.0769H137.003ZM146.399 27.263C145.723 27.263 145.11 27.139 144.559 26.8908C144.007 26.6289 143.532 26.2567 143.132 25.7743C142.732 25.278 142.422 24.6715 142.201 23.9547C141.995 23.2379 141.891 22.4315 141.891 21.5355C141.891 20.3225 142.077 19.2886 142.449 18.434C142.835 17.5655 143.366 16.9108 144.042 16.4697C144.717 16.0148 145.503 15.7873 146.399 15.7873C146.964 15.7873 147.474 15.8769 147.929 16.0561C148.384 16.2215 148.777 16.4628 149.107 16.7798C149.438 17.0831 149.68 17.4415 149.831 17.855H149.997L150.121 15.9941H152.995V27.0769H150.121L149.997 25.1953H149.831C149.611 25.8156 149.19 26.3188 148.57 26.7047C147.963 27.0769 147.24 27.263 146.399 27.263ZM147.495 24.8025C148.046 24.8025 148.501 24.6853 148.859 24.451C149.232 24.2166 149.507 23.8927 149.686 23.4791C149.866 23.0656 149.955 22.5969 149.955 22.0731V20.9772C149.955 20.4396 149.859 19.971 149.666 19.5712C149.487 19.1577 149.211 18.8337 148.839 18.5994C148.48 18.365 148.06 18.2479 147.577 18.2479C146.998 18.2479 146.516 18.3788 146.13 18.6407C145.758 18.9026 145.475 19.2817 145.282 19.778C145.089 20.2604 144.993 20.8463 144.993 21.5355C144.993 22.1972 145.082 22.7761 145.262 23.2724C145.441 23.7686 145.716 24.1477 146.089 24.4096C146.461 24.6715 146.929 24.8025 147.495 24.8025ZM160.805 27.2837C160.061 27.2837 159.392 27.201 158.8 27.0356C158.207 26.8564 157.697 26.6082 157.27 26.2912C156.856 25.9742 156.532 25.5951 156.298 25.154C156.063 24.6991 155.939 24.2028 155.926 23.6652H158.924C158.965 24.0098 159.068 24.2924 159.234 24.513C159.399 24.7198 159.62 24.8783 159.895 24.9886C160.185 25.085 160.516 25.1333 160.888 25.1333C161.453 25.1333 161.874 25.0299 162.149 24.8231C162.439 24.6164 162.583 24.3338 162.583 23.9754C162.583 23.6859 162.515 23.4654 162.377 23.3137C162.239 23.1483 162.011 23.0242 161.694 22.9415C161.391 22.845 160.978 22.7623 160.454 22.6934C159.503 22.5418 158.71 22.3419 158.076 22.0938C157.442 21.8457 156.973 21.501 156.67 21.0599C156.367 20.6188 156.215 20.0399 156.215 19.3231C156.215 18.6063 156.408 17.986 156.794 17.4622C157.194 16.9383 157.745 16.5317 158.448 16.2422C159.151 15.939 159.971 15.7873 160.909 15.7873C161.805 15.7873 162.583 15.9321 163.245 16.2215C163.921 16.4972 164.444 16.897 164.817 17.4208C165.203 17.9308 165.416 18.5305 165.458 19.2197H162.459C162.459 18.9164 162.384 18.6752 162.232 18.496C162.094 18.303 161.901 18.1583 161.653 18.0618C161.419 17.9653 161.143 17.917 160.826 17.917C160.343 17.917 159.958 18.0204 159.668 18.2272C159.392 18.4202 159.254 18.6959 159.254 19.0543C159.254 19.3162 159.33 19.5298 159.482 19.6953C159.647 19.8469 159.909 19.971 160.268 20.0674C160.626 20.1639 161.095 20.2535 161.674 20.3362C162.583 20.4603 163.335 20.6464 163.927 20.8945C164.52 21.1426 164.961 21.4942 165.251 21.949C165.54 22.3902 165.685 22.976 165.685 23.7066C165.685 24.4647 165.478 25.1126 165.065 25.6502C164.665 26.1878 164.1 26.5945 163.369 26.8702C162.639 27.1458 161.784 27.2837 160.805 27.2837Z"
    fill="#252525"
  />
</svg>
